<svg width="1674" height="132" viewBox="0 0 1674 132" fill="none" xmlns="http://www.w3.org/2000/svg">
<path d="M76.007 53.4C70.007 53.4 69.407 44.6 69.007 34C68.407 18.8 67.607 0.2 37.407 0.2C15.207 0.2 7.60703 11.8 7.20703 26C6.80703 45 21.407 52.4 21.407 65.2C21.407 78.2 0.00703129 88.8 0.407031 110.2C0.807031 125 10.207 131.8 24.407 131.8C47.007 131.8 54.207 107.4 37.407 86C24.007 69 22.407 52.4 50.407 52.4C74.607 52.4 80.007 66.6 61.607 86.4C45.207 104.8 50.007 131.6 76.007 131.6C101.807 131.6 106.607 104.8 90.207 86.4C71.807 66.6 77.207 52.4 101.407 52.4C129.407 52.4 127.807 69 114.407 86C97.607 107.4 104.807 131.8 127.407 131.8C141.607 131.8 151.007 125 151.407 110.2C151.807 88.8 130.407 78.2 130.407 65.2C130.407 52.4 145.007 45 144.607 26C144.207 11.8 136.607 0.2 114.407 0.2C84.207 0.2 83.407 18.8 82.807 34C82.407 44.6 81.807 53.4 76.007 53.4ZM200.212 132C237.812 132 246.812 110.4 246.212 67.4C246.812 21.8 237.612 0.2 200.212 0.2C163.612 0.2 154.612 21.8 154.612 67.2C154.612 110.4 163.612 132 200.212 132ZM200.212 46.2C226.612 46.2 238.612 52.2 238.612 66.6C238.612 80.2 226.212 86.2 200.012 86.2C175.012 86.2 162.012 80.2 162.012 66.6C162.012 52.4 174.612 46.2 200.212 46.2ZM307.835 53.2C318.435 53.2 324.635 46 324.635 30C324.635 10.8 314.635 0.4 290.035 0.4C261.835 0.4 253.435 12.4 253.035 25.4C252.435 45.4 271.035 53.2 271.035 65.2C271.035 77.6 253.235 90.6 253.835 110.6C254.235 125 264.635 131.8 281.035 131.8C295.835 131.8 305.035 124.8 305.035 110.2C305.035 87.4 279.435 82.6 279.435 65.4C279.435 56 285.835 52.2 294.235 52.2C299.635 52.2 303.035 53.2 307.835 53.2ZM415.174 -1.41561e-07C400.174 -1.41561e-07 388.974 5.4 388.974 22C388.974 43.8 412.574 42 412.574 54.8C412.574 60.4 409.174 63.2 384.774 63.2C360.374 63.2 356.774 60.4 356.774 54.8C356.774 42 380.574 43.8 380.574 22C380.574 5.4 369.374 -1.41561e-07 353.974 -1.41561e-07C339.374 -1.41561e-07 328.374 5.2 327.774 21.8C327.374 44.4 349.774 45.4 350.174 66C349.774 86.8 327.374 87.6 327.774 110.2C328.174 126.6 339.374 132 353.974 132C369.374 132 380.574 126.6 380.574 110.2C380.574 88.6 356.574 91.6 356.574 77.4C356.574 71.4 360.174 68.8 384.774 68.8C409.374 68.8 412.974 71.4 412.974 77.4C412.974 91.6 388.974 88.6 388.974 110.2C388.974 126.6 400.174 132 415.174 132C430.174 132 441.374 126.6 441.774 110.2C442.174 87.6 419.374 86.8 419.374 66C419.374 45.4 442.174 44.4 441.774 21.8C441.374 5.2 430.174 -1.41561e-07 415.174 -1.41561e-07ZM503.734 53.2C514.334 53.2 520.534 46 520.534 30C520.534 10.8 510.534 0.4 485.934 0.4C457.734 0.4 449.334 12.4 448.934 25.4C448.334 45.4 466.934 53.2 466.934 65.2C466.934 77.6 449.134 90.6 449.734 110.6C450.134 125 460.534 131.8 476.934 131.8C491.734 131.8 500.934 124.8 500.934 110.2C500.934 87.4 475.334 82.6 475.334 65.4C475.334 56 481.734 52.2 490.134 52.2C495.534 52.2 498.934 53.2 503.734 53.2ZM567.009 132C604.609 132 613.609 110.4 613.009 67.4C613.609 21.8 604.409 0.2 567.009 0.2C530.409 0.2 521.409 21.8 521.409 67.2C521.409 110.4 530.409 132 567.009 132ZM567.009 46.2C593.409 46.2 605.409 52.2 605.409 66.6C605.409 80.2 593.009 86.2 566.809 86.2C541.809 86.2 528.809 80.2 528.809 66.6C528.809 52.4 541.409 46.2 567.009 46.2ZM691.437 53.4C685.437 53.4 684.837 44.6 684.437 34C683.837 18.8 683.037 0.2 652.837 0.2C630.637 0.2 623.037 11.8 622.637 26C622.237 45 636.837 52.4 636.837 65.2C636.837 78.2 615.437 88.8 615.837 110.2C616.237 125 625.637 131.8 639.837 131.8C662.437 131.8 669.637 107.4 652.837 86C639.437 69 637.837 52.4 665.837 52.4C690.037 52.4 695.437 66.6 677.037 86.4C660.637 104.8 665.437 131.6 691.437 131.6C717.237 131.6 722.037 104.8 705.637 86.4C687.237 66.6 692.637 52.4 716.837 52.4C744.837 52.4 743.237 69 729.837 86C713.037 107.4 720.237 131.8 742.837 131.8C757.037 131.8 766.437 125 766.837 110.2C767.237 88.8 745.837 78.2 745.837 65.2C745.837 52.4 760.437 45 760.037 26C759.637 11.8 752.037 0.2 729.837 0.2C699.637 0.2 698.837 18.8 698.237 34C697.837 44.6 697.237 53.4 691.437 53.4ZM815.641 132C853.241 132 862.241 110.4 861.641 67.4C862.241 21.8 853.041 0.2 815.641 0.2C779.041 0.2 770.041 21.8 770.041 67.2C770.041 110.4 779.041 132 815.641 132ZM815.641 46.2C842.041 46.2 854.041 52.2 854.041 66.6C854.041 80.2 841.641 86.2 815.441 86.2C790.441 86.2 777.441 80.2 777.441 66.6C777.441 52.4 790.041 46.2 815.641 46.2ZM923.265 53.2C933.865 53.2 940.065 46 940.065 30C940.065 10.8 930.065 0.4 905.465 0.4C877.265 0.4 868.865 12.4 868.465 25.4C867.865 45.4 886.465 53.2 886.465 65.2C886.465 77.6 868.665 90.6 869.265 110.6C869.665 125 880.065 131.8 896.465 131.8C911.265 131.8 920.465 124.8 920.465 110.2C920.465 87.4 894.865 82.6 894.865 65.4C894.865 56 901.265 52.2 909.665 52.2C915.065 52.2 918.465 53.2 923.265 53.2ZM1030.6 -1.41561e-07C1015.6 -1.41561e-07 1004.4 5.4 1004.4 22C1004.4 43.8 1028 42 1028 54.8C1028 60.4 1024.6 63.2 1000.2 63.2C975.804 63.2 972.204 60.4 972.204 54.8C972.204 42 996.004 43.8 996.004 22C996.004 5.4 984.804 -1.41561e-07 969.404 -1.41561e-07C954.804 -1.41561e-07 943.804 5.2 943.204 21.8C942.804 44.4 965.204 45.4 965.604 66C965.204 86.8 942.804 87.6 943.204 110.2C943.604 126.6 954.804 132 969.404 132C984.804 132 996.004 126.6 996.004 110.2C996.004 88.6 972.004 91.6 972.004 77.4C972.004 71.4 975.604 68.8 1000.2 68.8C1024.8 68.8 1028.4 71.4 1028.4 77.4C1028.4 91.6 1004.4 88.6 1004.4 110.2C1004.4 126.6 1015.6 132 1030.6 132C1045.6 132 1056.8 126.6 1057.2 110.2C1057.6 87.6 1034.8 86.8 1034.8 66C1034.8 45.4 1057.6 44.4 1057.2 21.8C1056.8 5.2 1045.6 -1.41561e-07 1030.6 -1.41561e-07ZM1119.16 53.2C1129.76 53.2 1135.96 46 1135.96 30C1135.96 10.8 1125.96 0.4 1101.36 0.4C1073.16 0.4 1064.76 12.4 1064.36 25.4C1063.76 45.4 1082.36 53.2 1082.36 65.2C1082.36 77.6 1064.56 90.6 1065.16 110.6C1065.56 125 1075.96 131.8 1092.36 131.8C1107.16 131.8 1116.36 124.8 1116.36 110.2C1116.36 87.4 1090.76 82.6 1090.76 65.4C1090.76 56 1097.16 52.2 1105.56 52.2C1110.96 52.2 1114.36 53.2 1119.16 53.2ZM1182.44 132C1220.04 132 1229.04 110.4 1228.44 67.4C1229.04 21.8 1219.84 0.2 1182.44 0.2C1145.84 0.2 1136.84 21.8 1136.84 67.2C1136.84 110.4 1145.84 132 1182.44 132ZM1182.44 46.2C1208.84 46.2 1220.84 52.2 1220.84 66.6C1220.84 80.2 1208.44 86.2 1182.24 86.2C1157.24 86.2 1144.24 80.2 1144.24 66.6C1144.24 52.4 1156.84 46.2 1182.44 46.2ZM1306.87 53.4C1300.87 53.4 1300.27 44.6 1299.87 34C1299.27 18.8 1298.47 0.2 1268.27 0.2C1246.07 0.2 1238.47 11.8 1238.07 26C1237.67 45 1252.27 52.4 1252.27 65.2C1252.27 78.2 1230.87 88.8 1231.27 110.2C1231.67 125 1241.07 131.8 1255.27 131.8C1277.87 131.8 1285.07 107.4 1268.27 86C1254.87 69 1253.27 52.4 1281.27 52.4C1305.47 52.4 1310.87 66.6 1292.47 86.4C1276.07 104.8 1280.87 131.6 1306.87 131.6C1332.67 131.6 1337.47 104.8 1321.07 86.4C1302.67 66.6 1308.07 52.4 1332.27 52.4C1360.27 52.4 1358.67 69 1345.27 86C1328.47 107.4 1335.67 131.8 1358.27 131.8C1372.47 131.8 1381.87 125 1382.27 110.2C1382.67 88.8 1361.27 78.2 1361.27 65.2C1361.27 52.4 1375.87 45 1375.47 26C1375.07 11.8 1367.47 0.2 1345.27 0.2C1315.07 0.2 1314.27 18.8 1313.67 34C1313.27 44.6 1312.67 53.4 1306.87 53.4ZM1431.07 132C1468.67 132 1477.67 110.4 1477.07 67.4C1477.67 21.8 1468.47 0.2 1431.07 0.2C1394.47 0.2 1385.47 21.8 1385.47 67.2C1385.47 110.4 1394.47 132 1431.07 132ZM1431.07 46.2C1457.47 46.2 1469.47 52.2 1469.47 66.6C1469.47 80.2 1457.07 86.2 1430.87 86.2C1405.87 86.2 1392.87 80.2 1392.87 66.6C1392.87 52.4 1405.47 46.2 1431.07 46.2ZM1538.69 53.2C1549.29 53.2 1555.49 46 1555.49 30C1555.49 10.8 1545.49 0.4 1520.89 0.4C1492.69 0.4 1484.29 12.4 1483.89 25.4C1483.29 45.4 1501.89 53.2 1501.89 65.2C1501.89 77.6 1484.09 90.6 1484.69 110.6C1485.09 125 1495.49 131.8 1511.89 131.8C1526.69 131.8 1535.89 124.8 1535.89 110.2C1535.89 87.4 1510.29 82.6 1510.29 65.4C1510.29 56 1516.69 52.2 1525.09 52.2C1530.49 52.2 1533.89 53.2 1538.69 53.2ZM1646.03 -1.41561e-07C1631.03 -1.41561e-07 1619.83 5.4 1619.83 22C1619.83 43.8 1643.43 42 1643.43 54.8C1643.43 60.4 1640.03 63.2 1615.63 63.2C1591.23 63.2 1587.63 60.4 1587.63 54.8C1587.63 42 1611.43 43.8 1611.43 22C1611.43 5.4 1600.23 -1.41561e-07 1584.83 -1.41561e-07C1570.23 -1.41561e-07 1559.23 5.2 1558.63 21.8C1558.23 44.4 1580.63 45.4 1581.03 66C1580.63 86.8 1558.23 87.6 1558.63 110.2C1559.03 126.6 1570.23 132 1584.83 132C1600.23 132 1611.43 126.6 1611.43 110.2C1611.43 88.6 1587.43 91.6 1587.43 77.4C1587.43 71.4 1591.03 68.8 1615.63 68.8C1640.23 68.8 1643.83 71.4 1643.83 77.4C1643.83 91.6 1619.83 88.6 1619.83 110.2C1619.83 126.6 1631.03 132 1646.03 132C1661.03 132 1672.23 126.6 1672.63 110.2C1673.03 87.6 1650.23 86.8 1650.23 66C1650.23 45.4 1673.03 44.4 1672.63 21.8C1672.23 5.2 1661.03 -1.41561e-07 1646.03 -1.41561e-07Z" fill="black"/>
</svg>
